<svg id="svg" version="1.1" xmlns="http://www.w3.org/2000/svg" xmlns:xlink="http://www.w3.org/1999/xlink" width="400" height="201.7391304347826" viewBox="0, 0, 400,201.7391304347826"><g id="svgg"><path id="path0" d="M283.485 39.085 C 283.411 39.159,283.350 66.541,283.350 99.933 L 283.350 160.646 297.355 160.646 C 312.724 160.646,311.595 160.739,311.612 159.469 C 311.616 159.173,311.749 158.703,311.907 158.426 C 312.066 158.148,312.199 157.628,312.203 157.269 C 312.207 156.911,312.339 156.275,312.497 155.857 C 312.654 155.438,312.837 154.778,312.903 154.390 C 313.142 152.983,313.646 152.930,314.752 154.194 C 316.362 156.035,320.011 158.992,321.099 159.337 C 321.316 159.406,321.493 159.547,321.493 159.650 C 321.493 159.754,321.634 159.839,321.807 159.839 C 321.979 159.839,322.456 160.010,322.866 160.220 C 323.860 160.728,324.812 161.048,326.034 161.285 C 326.589 161.393,327.433 161.611,327.908 161.770 C 328.997 162.133,337.492 162.186,338.382 161.834 C 338.695 161.711,339.405 161.491,339.960 161.346 C 341.173 161.029,342.367 160.590,343.189 160.159 C 343.522 159.984,343.908 159.840,344.046 159.840 C 344.185 159.839,344.299 159.755,344.299 159.654 C 344.299 159.552,344.519 159.393,344.788 159.300 C 347.049 158.523,352.573 152.345,352.573 150.594 C 352.573 150.400,352.700 150.060,352.856 149.838 C 353.011 149.616,353.204 148.892,353.284 148.229 C 353.365 147.566,353.520 146.911,353.630 146.774 C 353.739 146.636,353.909 145.410,354.007 144.049 C 354.105 142.688,354.277 140.966,354.388 140.224 C 355.174 134.998,354.495 83.163,353.626 82.084 C 353.517 81.948,353.360 81.519,353.277 81.130 C 353.195 80.742,353.065 80.378,352.988 80.323 C 352.911 80.267,352.640 79.787,352.387 79.256 C 352.133 78.725,351.821 78.180,351.694 78.046 C 351.567 77.911,351.215 77.434,350.911 76.986 C 350.406 76.242,349.143 74.872,348.497 74.366 C 347.640 73.696,345.907 72.660,345.452 72.546 C 345.160 72.473,344.815 72.285,344.686 72.130 C 344.557 71.974,344.255 71.847,344.016 71.847 C 343.777 71.847,343.391 71.713,343.158 71.550 C 342.926 71.387,342.343 71.191,341.864 71.115 C 341.385 71.038,340.760 70.854,340.476 70.706 C 340.192 70.558,339.612 70.436,339.187 70.435 C 338.762 70.434,337.318 70.291,335.978 70.117 C 333.757 69.828,333.301 69.829,330.798 70.123 C 326.450 70.635,326.352 70.650,326.245 70.823 C 326.190 70.913,325.674 71.049,325.098 71.125 C 324.523 71.201,323.865 71.395,323.636 71.555 C 323.407 71.715,323.071 71.847,322.890 71.847 C 322.293 71.847,319.222 73.571,318.306 74.420 C 318.156 74.559,317.953 74.672,317.855 74.672 C 317.757 74.672,316.878 75.444,315.902 76.389 C 313.022 79.173,313.328 81.224,313.268 58.748 C 313.231 44.929,313.153 39.417,312.991 39.222 C 312.750 38.932,283.773 38.797,283.485 39.085 M90.619 100.656 C 90.620 134.039,90.694 161.466,90.783 161.606 C 90.910 161.806,93.779 161.849,104.453 161.808 L 117.962 161.756 118.063 122.603 C 118.161 84.562,118.207 81.836,118.746 82.707 C 118.825 82.835,118.982 83.769,119.095 84.782 C 119.208 85.796,119.390 86.859,119.498 87.144 C 119.607 87.429,119.746 88.395,119.808 89.291 C 119.870 90.186,120.048 91.366,120.203 91.914 C 120.358 92.461,120.487 93.414,120.489 94.033 C 120.492 94.651,120.593 95.520,120.713 95.964 C 120.833 96.408,121.055 97.725,121.206 98.890 C 121.507 101.218,121.789 103.138,122.125 105.146 C 122.246 105.868,122.463 107.412,122.608 108.577 C 122.752 109.743,122.967 111.060,123.085 111.504 C 123.204 111.948,123.302 112.817,123.305 113.435 C 123.308 114.053,123.437 115.006,123.592 115.554 C 123.747 116.101,123.929 117.352,123.998 118.333 C 124.066 119.314,124.207 120.275,124.310 120.468 C 124.413 120.660,124.554 121.538,124.624 122.417 C 124.694 123.297,124.875 124.652,125.028 125.429 C 125.181 126.206,125.398 127.614,125.510 128.557 C 125.622 129.501,125.805 130.681,125.916 131.181 C 126.027 131.680,126.123 132.543,126.129 133.098 C 126.135 133.653,126.275 134.553,126.440 135.098 C 126.605 135.643,126.741 136.597,126.741 137.218 C 126.741 137.839,126.840 138.665,126.960 139.053 C 127.081 139.441,127.301 140.711,127.449 141.877 C 127.749 144.245,128.057 146.377,128.383 148.335 C 128.503 149.057,128.719 150.600,128.864 151.766 C 129.009 152.931,129.224 154.248,129.342 154.692 C 129.460 155.136,129.559 156.007,129.561 156.628 C 129.564 157.248,129.701 158.202,129.867 158.747 C 130.032 159.292,130.169 160.010,130.172 160.343 C 130.175 160.676,130.232 161.153,130.299 161.403 L 130.420 161.857 139.859 161.857 L 149.298 161.857 149.635 161.148 C 149.833 160.729,150.047 159.501,150.158 158.144 C 150.261 156.882,150.425 155.635,150.524 155.372 C 150.622 155.109,150.766 154.031,150.844 152.977 C 150.922 151.922,151.116 150.612,151.275 150.064 C 151.434 149.517,151.564 148.464,151.564 147.725 C 151.564 146.986,151.699 145.935,151.865 145.390 C 152.030 144.845,152.172 143.900,152.179 143.290 C 152.187 142.679,152.281 141.726,152.387 141.171 C 152.493 140.616,152.671 139.390,152.781 138.446 C 152.892 137.503,153.112 135.959,153.271 135.015 C 153.430 134.072,153.616 132.580,153.684 131.701 C 153.752 130.821,153.890 129.947,153.992 129.757 C 154.093 129.567,154.234 128.516,154.304 127.421 C 154.374 126.325,154.558 124.981,154.713 124.434 C 154.868 123.886,154.999 122.887,155.004 122.214 C 155.009 121.540,155.106 120.580,155.221 120.081 C 155.335 119.581,155.514 118.310,155.619 117.255 C 155.724 116.201,155.944 114.730,156.108 113.986 C 156.273 113.243,156.410 112.153,156.412 111.565 C 156.415 110.976,156.515 110.131,156.634 109.687 C 156.754 109.243,156.969 107.790,157.112 106.458 C 157.256 105.126,157.472 103.673,157.592 103.229 C 157.712 102.785,157.813 101.825,157.816 101.096 C 157.818 100.367,157.947 99.323,158.102 98.775 C 158.257 98.228,158.437 96.950,158.502 95.936 C 158.567 94.923,158.708 93.861,158.816 93.576 C 158.924 93.292,159.104 92.012,159.215 90.731 C 159.326 89.450,159.500 88.242,159.600 88.046 C 159.701 87.850,159.840 86.786,159.909 85.682 C 160.023 83.869,160.172 83.250,160.985 81.231 C 161.196 80.707,161.387 104.602,161.424 136.159 C 161.440 149.942,161.508 161.362,161.576 161.537 C 161.686 161.824,163.054 161.857,174.973 161.857 L 188.248 161.857 188.369 161.403 C 188.436 161.153,188.492 133.726,188.494 100.454 L 188.496 39.960 168.012 39.960 L 147.528 39.960 147.528 40.656 C 147.528 41.039,147.392 41.876,147.225 42.515 C 147.059 43.154,146.922 44.272,146.922 44.998 C 146.922 45.725,146.826 46.637,146.708 47.025 C 146.590 47.412,146.411 48.690,146.310 49.864 C 146.209 51.039,145.989 52.582,145.821 53.295 C 145.653 54.008,145.514 55.188,145.513 55.917 C 145.511 56.646,145.383 57.690,145.228 58.238 C 145.073 58.785,144.890 60.172,144.822 61.319 C 144.754 62.466,144.611 63.568,144.504 63.767 C 144.397 63.966,144.253 65.026,144.183 66.121 C 144.113 67.217,143.928 68.626,143.773 69.252 C 143.618 69.879,143.491 70.972,143.491 71.682 C 143.491 72.392,143.351 73.512,143.179 74.171 C 143.008 74.830,142.787 76.370,142.689 77.594 C 142.590 78.817,142.413 80.136,142.294 80.523 C 142.176 80.911,142.075 81.819,142.070 82.542 C 142.065 83.264,141.968 84.263,141.853 84.763 C 141.739 85.262,141.533 86.810,141.396 88.201 C 141.259 89.593,141.075 90.847,140.987 90.989 C 140.900 91.131,140.762 92.242,140.682 93.458 C 140.602 94.675,140.438 95.768,140.317 95.889 C 139.896 96.310,139.227 94.320,139.053 92.129 C 138.965 91.019,138.802 89.881,138.691 89.600 C 138.580 89.319,138.422 88.275,138.339 87.279 C 138.257 86.284,138.065 85.117,137.914 84.687 C 137.763 84.257,137.639 83.348,137.639 82.668 C 137.639 81.987,137.539 81.113,137.417 80.725 C 137.295 80.337,137.076 79.021,136.929 77.800 C 136.783 76.579,136.567 75.217,136.449 74.773 C 136.332 74.329,136.233 73.449,136.231 72.818 C 136.228 72.187,136.127 71.415,136.006 71.103 C 135.884 70.790,135.708 69.672,135.614 68.618 C 135.519 67.563,135.301 66.159,135.128 65.497 C 134.955 64.836,134.813 63.740,134.813 63.061 C 134.813 62.383,134.685 61.426,134.527 60.934 C 134.370 60.443,134.194 59.206,134.137 58.186 C 134.081 57.167,133.936 56.150,133.817 55.926 C 133.697 55.703,133.545 54.676,133.478 53.643 C 133.411 52.611,133.230 51.377,133.076 50.901 C 132.921 50.425,132.793 49.517,132.790 48.883 C 132.788 48.249,132.606 47.055,132.387 46.230 C 132.167 45.405,131.988 44.258,131.988 43.682 C 131.988 43.106,131.852 42.248,131.685 41.776 C 131.519 41.304,131.382 40.702,131.382 40.439 L 131.382 39.960 110.999 39.960 L 90.616 39.960 90.619 100.656 M200.407 100.656 C 200.408 134.039,200.482 161.467,200.571 161.606 C 201.003 162.286,247.441 161.686,251.953 160.943 C 252.944 160.779,254.151 160.646,254.637 160.646 C 255.122 160.646,255.765 160.520,256.065 160.367 C 256.364 160.214,257.018 160.021,257.518 159.938 C 258.017 159.855,258.605 159.663,258.824 159.511 C 259.043 159.358,259.418 159.233,259.657 159.233 C 259.896 159.233,260.205 159.097,260.343 158.930 C 260.481 158.764,260.723 158.628,260.879 158.628 C 261.816 158.628,266.676 154.937,267.058 153.935 C 267.132 153.741,267.286 153.582,267.400 153.582 C 267.515 153.582,267.608 153.476,267.608 153.346 C 267.608 153.216,267.735 152.966,267.889 152.791 C 268.043 152.616,268.414 151.973,268.714 151.362 C 269.013 150.752,269.387 150.011,269.544 149.717 C 269.700 149.422,269.828 148.998,269.828 148.774 C 269.828 148.551,269.958 148.111,270.116 147.796 C 270.616 146.802,270.977 144.205,271.540 137.538 C 271.913 133.121,271.995 73.899,271.634 69.828 C 271.521 68.552,271.350 66.191,271.255 64.581 C 271.077 61.559,270.594 58.517,270.107 57.359 C 269.954 56.995,269.828 56.559,269.828 56.390 C 269.828 56.086,269.179 54.468,268.822 53.885 C 268.721 53.718,268.442 53.193,268.202 52.718 C 267.963 52.242,267.664 51.743,267.537 51.608 C 267.410 51.473,267.040 50.971,266.716 50.493 C 266.197 49.730,263.672 47.075,262.933 46.517 C 261.508 45.440,257.911 43.541,256.786 43.272 C 256.467 43.196,256.091 43.042,255.950 42.931 C 255.809 42.820,255.355 42.660,254.941 42.575 C 254.527 42.490,253.915 42.328,253.582 42.214 C 252.775 41.937,251.074 41.591,249.344 41.352 C 248.567 41.244,247.386 41.067,246.720 40.959 C 246.054 40.851,243.421 40.674,240.868 40.566 C 238.315 40.458,235.545 40.277,234.712 40.164 C 233.783 40.037,226.871 39.957,216.801 39.958 L 200.404 39.960 200.407 100.656 M48.738 41.221 C 48.678 41.471,48.653 68.875,48.684 102.119 L 48.739 162.563 64.165 162.615 C 76.372 162.656,79.625 162.614,79.752 162.413 C 79.938 162.121,79.982 41.569,79.797 41.086 C 79.687 40.799,78.130 40.767,64.261 40.767 L 48.847 40.767 48.738 41.221 M236.932 60.879 C 239.227 61.535,240.302 62.365,241.068 64.074 C 241.539 65.125,241.568 65.396,241.981 72.755 C 242.222 77.042,242.214 122.142,241.971 126.135 C 241.867 127.856,241.702 130.585,241.606 132.200 C 241.509 133.815,241.339 135.313,241.227 135.530 C 241.115 135.746,240.966 136.303,240.895 136.767 C 240.672 138.229,239.648 139.394,237.841 140.239 C 236.701 140.772,232.123 141.240,231.777 140.858 C 231.281 140.309,231.339 60.853,231.837 60.555 C 232.311 60.270,235.514 60.473,236.932 60.879 M320.081 87.525 C 320.580 87.590,321.125 87.748,321.292 87.876 C 321.458 88.005,321.835 88.230,322.128 88.377 C 322.888 88.756,323.491 89.656,323.729 90.767 C 323.842 91.294,324.017 92.089,324.118 92.533 C 324.358 93.589,324.358 136.894,324.119 138.749 C 323.665 142.259,323.549 142.724,322.968 143.338 C 320.630 145.811,315.098 145.392,314.338 142.684 C 314.260 142.407,314.078 141.907,313.934 141.574 C 313.036 139.496,313.036 92.190,313.934 90.111 C 314.078 89.778,314.252 89.309,314.321 89.069 C 314.620 88.023,316.722 87.109,318.365 87.309 C 318.809 87.363,319.581 87.461,320.081 87.525 " stroke="none" fill="#050504" fill-rule="evenodd"></path><path id="path1" d="M12.916 0.202 C 12.916 0.313,12.631 0.404,12.283 0.404 C 11.924 0.404,11.523 0.557,11.359 0.757 C 11.200 0.951,11.129 0.994,11.201 0.853 C 11.279 0.700,11.047 0.755,10.630 0.990 C 10.244 1.207,9.876 1.332,9.812 1.269 C 9.749 1.205,9.639 1.302,9.569 1.485 C 9.499 1.667,9.270 1.816,9.060 1.816 C 8.850 1.816,8.678 1.953,8.678 2.119 C 8.678 2.287,8.499 2.422,8.274 2.422 C 8.052 2.422,7.689 2.603,7.467 2.825 C 7.245 3.047,6.973 3.229,6.862 3.229 C 6.751 3.229,6.660 3.365,6.660 3.532 C 6.660 3.698,6.546 3.836,6.408 3.838 C 6.100 3.842,5.247 4.713,5.247 5.023 C 5.247 5.147,5.134 5.249,4.995 5.251 C 4.687 5.255,3.835 6.126,3.835 6.436 C 3.835 6.559,3.698 6.660,3.532 6.660 C 3.320 6.660,3.229 6.873,3.229 7.366 C 3.229 7.938,3.152 8.073,2.825 8.073 C 2.603 8.073,2.422 8.201,2.422 8.359 C 2.422 8.516,2.324 8.677,2.204 8.717 C 2.084 8.757,1.917 9.105,1.834 9.491 C 1.750 9.876,1.576 10.169,1.446 10.141 C 1.317 10.114,1.207 10.114,1.203 10.141 C 1.199 10.169,1.146 10.555,1.086 10.999 C 1.026 11.443,0.848 11.907,0.690 12.030 C 0.525 12.160,0.404 12.608,0.404 13.090 C 0.404 13.549,0.313 13.925,0.202 13.925 C 0.068 13.925,0.000 42.987,0.000 100.706 C 0.000 158.426,0.068 187.487,0.202 187.487 C 0.313 187.487,0.404 187.899,0.404 188.402 C 0.404 189.029,0.499 189.353,0.706 189.433 C 0.873 189.496,1.009 189.713,1.009 189.914 C 1.009 190.496,1.231 190.918,1.535 190.918 C 1.722 190.918,1.816 191.155,1.816 191.625 C 1.816 192.118,1.908 192.331,2.119 192.331 C 2.286 192.331,2.422 192.505,2.422 192.718 C 2.422 193.320,2.639 193.744,2.948 193.744 C 3.103 193.744,3.229 193.925,3.229 194.147 C 3.229 194.372,3.364 194.551,3.532 194.551 C 3.698 194.551,3.835 194.687,3.835 194.854 C 3.835 195.020,3.930 195.156,4.047 195.156 C 4.163 195.156,4.392 195.474,4.554 195.863 C 4.716 196.251,4.989 196.569,5.161 196.569 C 5.332 196.569,5.416 196.661,5.347 196.772 C 5.278 196.884,5.386 197.037,5.588 197.113 C 5.789 197.189,6.074 197.392,6.221 197.566 C 6.442 197.827,6.466 197.829,6.357 197.578 C 6.272 197.380,6.326 197.398,6.516 197.629 C 6.675 197.823,6.909 197.982,7.035 197.982 C 7.162 197.982,7.265 198.118,7.265 198.285 C 7.265 198.453,7.445 198.587,7.669 198.587 C 7.938 198.587,8.073 198.722,8.073 198.991 C 8.073 199.213,8.141 199.384,8.224 199.371 C 8.852 199.271,9.485 199.435,9.485 199.697 C 9.485 199.885,9.676 200.000,9.988 200.000 C 10.272 200.000,10.601 200.175,10.743 200.404 C 10.892 200.642,11.214 200.807,11.530 200.807 C 11.825 200.807,12.118 200.943,12.182 201.110 C 12.264 201.324,12.597 201.413,13.314 201.413 C 13.872 201.413,14.329 201.504,14.329 201.615 C 14.329 201.749,76.354 201.816,200.000 201.816 C 323.646 201.816,385.671 201.749,385.671 201.615 C 385.671 201.504,386.159 201.413,386.756 201.413 C 387.431 201.413,387.929 201.308,388.072 201.135 C 388.199 200.983,388.664 200.800,389.106 200.729 C 389.625 200.646,389.909 200.494,389.909 200.300 C 389.909 200.135,390.080 200.000,390.288 200.000 C 390.497 200.000,390.780 199.864,390.918 199.697 C 391.056 199.531,391.340 199.395,391.548 199.395 C 391.793 199.395,391.927 199.251,391.927 198.991 C 391.927 198.769,392.060 198.587,392.222 198.587 C 392.692 198.587,393.935 197.904,393.941 197.642 C 393.943 197.511,394.127 197.346,394.349 197.275 C 394.571 197.205,394.753 197.017,394.753 196.858 C 394.753 196.699,394.889 196.569,395.055 196.569 C 395.222 196.569,395.358 196.436,395.358 196.273 C 395.358 196.111,395.540 195.881,395.762 195.762 C 395.984 195.643,396.165 195.452,396.165 195.337 C 396.165 195.222,396.302 194.991,396.468 194.825 C 396.635 194.658,396.771 194.358,396.771 194.156 C 396.771 193.955,396.953 193.743,397.175 193.685 C 397.418 193.621,397.578 193.410,397.578 193.151 C 397.578 192.915,397.714 192.670,397.881 192.606 C 398.047 192.542,398.184 192.340,398.184 192.156 C 398.184 191.973,398.345 191.722,398.542 191.599 C 398.749 191.469,398.922 191.086,398.950 190.692 C 398.977 190.317,399.134 189.909,399.298 189.786 C 399.466 189.660,399.596 189.240,399.596 188.827 C 399.596 188.423,399.687 188.093,399.798 188.093 C 399.932 188.093,400.000 158.863,400.000 100.807 C 400.000 42.751,399.932 13.522,399.798 13.522 C 399.687 13.522,399.596 13.068,399.596 12.513 C 399.596 11.813,399.519 11.519,399.344 11.554 C 399.186 11.586,399.068 11.321,399.029 10.848 C 398.980 10.255,398.882 10.091,398.575 10.091 C 398.262 10.091,398.184 9.949,398.184 9.384 C 398.184 8.891,398.092 8.678,397.881 8.678 C 397.712 8.678,397.578 8.498,397.578 8.272 C 397.578 8.049,397.397 7.711,397.175 7.521 C 396.953 7.331,396.771 7.060,396.771 6.918 C 396.771 6.776,396.635 6.660,396.468 6.660 C 396.300 6.660,396.165 6.481,396.165 6.256 C 396.165 6.028,396.031 5.853,395.856 5.853 C 395.686 5.853,395.495 5.716,395.431 5.550 C 395.367 5.383,395.189 5.247,395.034 5.247 C 394.879 5.247,394.753 5.108,394.753 4.938 C 394.753 4.768,394.617 4.577,394.450 4.513 C 394.284 4.449,394.147 4.270,394.147 4.116 C 394.147 3.961,393.966 3.835,393.744 3.835 C 393.519 3.835,393.340 3.700,393.340 3.532 C 393.340 3.365,393.214 3.229,393.061 3.229 C 392.907 3.229,392.732 3.038,392.671 2.805 C 392.610 2.572,392.475 2.434,392.371 2.498 C 392.266 2.563,391.974 2.435,391.721 2.216 C 391.467 1.996,391.099 1.816,390.901 1.816 C 390.703 1.816,390.484 1.635,390.414 1.413 C 390.324 1.130,390.108 1.009,389.694 1.009 C 389.302 1.009,389.102 0.907,389.102 0.706 C 389.102 0.478,388.855 0.404,388.093 0.404 C 387.538 0.404,387.084 0.313,387.084 0.202 C 387.084 0.067,324.588 0.000,200.000 0.000 C 75.412 0.000,12.916 0.067,12.916 0.202 M313.491 38.521 C 313.797 38.775,313.824 40.375,313.824 57.829 C 313.824 68.295,313.873 76.986,313.933 77.142 C 314.010 77.344,314.315 77.161,314.999 76.502 C 316.876 74.695,318.732 73.223,319.677 72.794 C 319.979 72.657,320.225 72.523,320.989 72.080 C 321.211 71.951,321.620 71.754,321.897 71.643 C 322.175 71.531,322.643 71.305,322.937 71.139 C 323.232 70.973,323.672 70.838,323.916 70.838 C 324.159 70.838,324.645 70.707,324.995 70.548 C 325.344 70.389,326.266 70.168,327.043 70.056 C 327.820 69.945,328.865 69.762,329.364 69.648 C 330.539 69.382,336.661 69.381,337.841 69.647 C 338.340 69.760,339.339 69.942,340.061 70.051 C 340.782 70.160,341.659 70.382,342.008 70.544 C 342.358 70.705,342.749 70.838,342.877 70.838 C 343.214 70.838,345.295 71.782,347.258 72.826 C 347.541 72.977,347.928 73.249,348.119 73.432 C 348.310 73.614,348.854 74.082,349.329 74.470 C 350.688 75.582,352.104 77.486,353.083 79.516 C 353.377 80.126,353.750 80.889,353.911 81.211 C 354.072 81.533,354.258 82.214,354.324 82.725 C 354.391 83.235,354.546 83.780,354.670 83.936 C 354.985 84.334,355.097 141.154,354.786 142.824 C 354.666 143.468,354.481 144.768,354.374 145.711 C 354.268 146.655,354.046 147.769,353.881 148.188 C 353.717 148.606,353.582 149.183,353.582 149.468 C 353.582 149.754,353.450 150.229,353.289 150.524 C 353.127 150.818,352.757 151.582,352.467 152.220 C 352.176 152.858,351.876 153.380,351.801 153.380 C 351.725 153.380,351.548 153.640,351.407 153.957 C 350.943 155.007,347.957 157.877,345.918 159.233 C 345.668 159.400,345.255 159.695,345.000 159.889 C 344.746 160.083,344.404 160.242,344.241 160.242 C 344.078 160.242,343.833 160.376,343.698 160.540 C 343.562 160.703,343.142 160.895,342.765 160.966 C 342.387 161.036,342.079 161.171,342.079 161.265 C 342.079 161.358,341.738 161.496,341.322 161.572 C 340.906 161.647,340.338 161.823,340.061 161.963 C 338.090 162.957,328.325 162.967,326.361 161.977 C 326.070 161.830,325.433 161.659,324.946 161.597 C 324.458 161.535,324.004 161.397,323.937 161.292 C 323.869 161.186,323.496 161.033,323.108 160.951 C 322.719 160.870,322.265 160.696,322.099 160.566 C 321.932 160.437,321.387 160.112,320.888 159.846 C 320.005 159.375,319.021 158.736,318.547 158.325 C 318.419 158.214,318.106 157.987,317.852 157.820 C 317.599 157.654,316.620 156.768,315.679 155.853 C 313.571 153.804,313.221 153.749,313.218 155.466 C 313.217 155.817,313.081 156.365,312.915 156.683 C 312.749 157.001,312.606 157.546,312.598 157.894 C 312.589 158.242,312.381 159.072,312.135 159.738 L 311.688 160.949 297.390 161.000 C 286.996 161.038,283.017 160.990,282.817 160.824 C 282.587 160.633,282.543 150.837,282.543 99.865 L 282.543 39.134 283.042 38.635 L 283.541 38.136 298.349 38.190 C 310.544 38.235,313.216 38.293,313.491 38.521 M131.913 40.073 C 132.127 40.399,132.285 41.160,132.342 42.141 C 132.391 42.995,132.559 44.082,132.714 44.558 C 132.870 45.034,132.997 45.900,132.997 46.483 C 132.997 47.067,133.135 48.076,133.305 48.725 C 133.474 49.375,133.665 50.598,133.729 51.442 C 133.794 52.286,133.973 53.425,134.128 53.972 C 134.283 54.519,134.410 55.398,134.410 55.925 C 134.410 56.452,134.591 57.804,134.813 58.930 C 135.035 60.057,135.217 61.477,135.217 62.087 C 135.217 62.696,135.316 63.380,135.436 63.605 C 135.557 63.831,135.722 64.942,135.803 66.074 C 135.884 67.206,136.026 68.256,136.120 68.407 C 136.213 68.558,136.405 69.689,136.546 70.920 C 136.687 72.151,136.896 73.567,137.010 74.067 C 137.124 74.566,137.221 75.437,137.226 76.002 C 137.231 76.567,137.365 77.462,137.524 77.991 C 137.683 78.519,137.876 79.782,137.953 80.798 C 138.030 81.813,138.176 82.748,138.278 82.876 C 138.380 83.004,138.513 83.913,138.573 84.895 C 138.634 85.877,138.804 87.089,138.951 87.588 C 139.097 88.088,139.266 89.286,139.326 90.251 C 139.397 91.404,139.567 92.264,139.821 92.761 L 140.209 93.516 140.352 91.511 C 140.430 90.408,140.624 88.993,140.782 88.366 C 140.940 87.740,141.074 86.696,141.078 86.046 C 141.083 85.396,141.178 84.455,141.288 83.956 C 141.399 83.456,141.617 81.867,141.772 80.424 C 141.928 78.981,142.151 77.483,142.269 77.095 C 142.386 76.707,142.485 75.799,142.487 75.077 C 142.490 74.355,142.590 73.401,142.710 72.957 C 142.830 72.513,143.004 71.169,143.096 69.971 C 143.189 68.773,143.360 67.501,143.477 67.146 C 143.594 66.790,143.777 65.454,143.882 64.178 C 143.988 62.901,144.163 61.584,144.271 61.251 C 144.379 60.918,144.522 59.762,144.589 58.681 C 144.655 57.600,144.804 56.468,144.920 56.165 C 145.035 55.861,145.205 54.566,145.298 53.286 C 145.390 52.006,145.567 50.703,145.690 50.390 C 145.813 50.078,145.917 49.215,145.922 48.473 C 145.927 47.731,146.021 46.715,146.130 46.216 C 146.240 45.716,146.455 44.146,146.609 42.725 C 146.763 41.305,146.998 40.011,147.132 39.849 C 147.516 39.386,188.523 39.409,188.987 39.873 C 189.418 40.304,189.473 160.804,189.043 161.655 L 188.787 162.159 175.035 162.211 C 162.732 162.258,161.249 162.230,160.964 161.945 C 160.676 161.657,160.646 158.008,160.643 124.052 C 160.640 89.666,160.544 82.297,160.172 87.967 C 160.099 89.077,159.947 90.229,159.833 90.529 C 159.720 90.828,159.547 92.037,159.449 93.215 C 159.352 94.394,159.173 95.614,159.051 95.926 C 158.929 96.239,158.829 97.105,158.829 97.852 C 158.829 98.598,158.703 99.705,158.549 100.311 C 158.394 100.917,158.206 102.230,158.130 103.229 C 158.054 104.228,157.862 105.558,157.704 106.185 C 157.546 106.811,157.413 107.810,157.408 108.405 C 157.403 108.999,157.305 109.894,157.191 110.394 C 157.076 110.893,156.862 112.392,156.714 113.724 C 156.566 115.055,156.346 116.463,156.225 116.850 C 156.103 117.238,156.002 118.146,155.999 118.868 C 155.997 119.591,155.897 120.545,155.777 120.989 C 155.658 121.433,155.487 122.614,155.397 123.613 C 155.308 124.612,155.090 126.129,154.913 126.984 C 154.736 127.840,154.591 128.979,154.591 129.515 C 154.591 130.052,154.466 130.986,154.314 131.592 C 154.161 132.198,153.981 133.524,153.914 134.538 C 153.847 135.552,153.695 136.635,153.577 136.945 C 153.460 137.255,153.286 138.514,153.191 139.743 C 153.096 140.972,152.918 142.233,152.796 142.546 C 152.673 142.858,152.569 143.676,152.564 144.362 C 152.560 145.049,152.462 146.019,152.347 146.519 C 152.232 147.018,152.050 148.335,151.943 149.445 C 151.835 150.555,151.615 151.931,151.454 152.503 C 151.293 153.075,151.156 154.120,151.152 154.824 C 151.147 155.529,151.049 156.514,150.934 157.013 C 150.820 157.513,150.633 158.784,150.520 159.839 C 150.230 162.531,151.380 162.272,139.990 162.212 L 130.083 162.159 129.711 161.156 C 129.506 160.605,129.289 159.379,129.228 158.432 C 129.168 157.485,128.992 156.321,128.838 155.846 C 128.683 155.370,128.557 154.416,128.557 153.725 C 128.557 153.035,128.458 152.152,128.338 151.765 C 128.217 151.377,127.996 150.061,127.847 148.840 C 127.699 147.619,127.483 146.211,127.369 145.711 C 127.255 145.212,127.158 144.275,127.153 143.630 C 127.148 142.984,127.043 142.267,126.920 142.036 C 126.796 141.806,126.576 140.563,126.431 139.275 C 126.286 137.986,126.071 136.569,125.954 136.125 C 125.837 135.681,125.739 134.762,125.736 134.082 C 125.734 133.402,125.595 132.460,125.429 131.988 C 125.262 131.516,125.122 130.619,125.117 129.995 C 125.113 129.371,125.014 128.451,124.898 127.952 C 124.782 127.452,124.598 126.317,124.490 125.429 C 124.382 124.541,124.168 123.179,124.015 122.402 C 123.862 121.625,123.686 120.336,123.624 119.538 C 123.562 118.740,123.414 117.833,123.296 117.523 C 123.178 117.212,123.032 116.185,122.972 115.240 C 122.912 114.295,122.736 113.133,122.581 112.657 C 122.427 112.181,122.301 111.227,122.301 110.537 C 122.301 109.846,122.202 108.964,122.081 108.576 C 121.961 108.188,121.742 106.872,121.595 105.651 C 121.449 104.430,121.232 103.068,121.113 102.624 C 120.995 102.180,120.895 101.300,120.893 100.669 C 120.890 100.038,120.788 99.266,120.666 98.954 C 120.544 98.641,120.325 97.341,120.178 96.065 C 120.031 94.788,119.815 93.380,119.698 92.936 C 119.581 92.492,119.483 91.536,119.480 90.812 C 119.477 89.952,119.366 89.338,119.161 89.045 C 118.988 88.798,118.783 87.938,118.707 87.134 C 118.630 86.329,118.522 102.881,118.466 123.915 L 118.365 162.159 104.453 162.211 C 93.456 162.252,90.506 162.210,90.379 162.009 C 90.186 161.705,90.153 39.884,90.346 39.691 C 90.420 39.617,99.727 39.556,111.028 39.556 L 131.575 39.556 131.913 40.073 M239.152 39.767 C 240.318 39.873,242.634 40.046,244.299 40.150 C 245.964 40.255,247.867 40.482,248.529 40.655 C 249.190 40.827,250.144 40.972,250.648 40.976 C 251.152 40.980,251.791 41.113,252.069 41.271 C 252.346 41.430,252.891 41.564,253.280 41.568 C 253.668 41.573,254.246 41.712,254.564 41.878 C 254.882 42.044,255.274 42.180,255.435 42.180 C 255.834 42.180,259.206 43.549,259.939 44.009 C 260.106 44.113,260.447 44.287,260.696 44.395 C 260.946 44.503,261.150 44.684,261.150 44.798 C 261.150 44.912,261.291 45.005,261.464 45.005 C 261.785 45.005,264.361 46.952,265.086 47.742 C 265.804 48.526,266.599 49.484,266.599 49.567 C 266.599 49.611,266.758 49.822,266.953 50.036 C 267.861 51.037,268.113 51.399,268.716 52.573 C 268.887 52.906,269.104 53.315,269.197 53.481 C 269.744 54.454,270.030 55.090,270.030 55.332 C 270.030 55.483,270.212 55.945,270.434 56.359 C 270.656 56.774,270.841 57.408,270.845 57.769 C 270.849 58.130,270.982 58.653,271.140 58.930 C 271.301 59.211,271.432 59.982,271.436 60.670 C 271.440 61.349,271.602 62.711,271.796 63.697 C 272.256 66.033,272.351 139.612,271.896 140.851 C 271.756 141.230,271.585 142.456,271.515 143.575 C 271.444 144.695,271.263 145.856,271.112 146.155 C 270.961 146.455,270.838 146.978,270.838 147.317 C 270.838 147.656,270.656 148.272,270.434 148.686 C 270.212 149.100,270.030 149.634,270.030 149.871 C 270.030 150.109,269.894 150.417,269.728 150.555 C 269.561 150.693,269.425 150.970,269.425 151.171 C 269.425 151.371,269.289 151.671,269.122 151.838 C 268.956 152.004,268.819 152.222,268.819 152.320 C 268.819 152.825,265.384 156.811,264.949 156.811 C 264.858 156.811,264.612 156.970,264.403 157.164 C 263.734 157.787,263.093 158.224,262.849 158.224 C 262.719 158.224,262.499 158.360,262.361 158.527 C 262.223 158.693,261.977 158.829,261.813 158.829 C 261.650 158.829,261.286 159.011,261.004 159.233 C 260.721 159.455,260.287 159.637,260.038 159.637 C 259.789 159.637,259.472 159.773,259.334 159.939 C 259.196 160.106,258.796 160.242,258.446 160.242 C 258.096 160.242,257.624 160.372,257.397 160.531 C 257.171 160.689,256.401 160.883,255.687 160.961 C 254.974 161.038,254.278 161.190,254.143 161.298 C 254.007 161.405,252.327 161.571,250.409 161.666 C 248.491 161.761,246.287 161.932,245.510 162.045 C 243.353 162.361,200.156 162.335,199.839 162.018 C 199.486 161.665,199.486 40.151,199.839 39.798 C 200.141 39.496,235.869 39.467,239.152 39.767 M79.869 40.328 C 80.071 40.456,80.111 52.869,80.071 101.728 L 80.020 162.967 64.200 163.018 C 52.680 163.056,48.305 163.008,48.105 162.842 C 47.821 162.607,47.673 41.880,47.955 40.829 C 48.020 40.585,48.269 40.348,48.507 40.301 C 49.324 40.141,79.616 40.167,79.869 40.328 M231.994 61.376 C 231.930 61.641,231.902 79.521,231.933 101.110 L 231.988 140.363 233.635 140.422 C 234.890 140.466,235.562 140.382,236.454 140.068 C 237.098 139.842,237.777 139.657,237.963 139.657 C 238.150 139.657,238.354 139.521,238.418 139.354 C 238.482 139.188,238.628 139.051,238.742 139.051 C 239.426 139.051,240.565 136.972,240.565 135.722 C 240.565 135.230,240.724 134.393,240.918 133.862 C 241.249 132.957,241.271 130.798,241.271 99.395 C 241.271 67.869,241.251 65.855,240.918 65.247 C 240.724 64.892,240.565 64.434,240.565 64.229 C 240.565 63.131,238.365 61.667,236.226 61.342 C 232.911 60.838,232.122 60.845,231.994 61.376 M316.616 87.921 C 315.095 88.189,314.304 89.965,314.023 93.744 C 313.809 96.625,313.817 135.503,314.032 138.143 C 314.434 143.084,315.432 144.502,318.505 144.501 C 319.247 144.501,319.907 144.417,319.970 144.314 C 320.034 144.212,320.379 144.066,320.739 143.990 C 321.592 143.809,322.704 143.128,322.704 142.785 C 322.704 142.637,322.818 142.478,322.957 142.432 C 323.676 142.192,324.386 97.195,323.714 94.481 C 323.594 93.998,323.441 92.886,323.373 92.009 C 323.299 91.050,323.141 90.323,322.977 90.187 C 322.827 90.063,322.703 89.858,322.701 89.733 C 322.696 89.417,321.800 88.597,321.459 88.597 C 321.306 88.597,320.990 88.464,320.757 88.302 C 320.322 87.996,317.605 87.747,316.616 87.921 " stroke="none" fill="#f3cb04" fill-rule="evenodd"></path><path id="path2" d="M283.042 38.635 L 282.543 39.134 282.543 99.865 C 282.543 150.837,282.587 160.633,282.817 160.824 C 283.017 160.990,286.996 161.038,297.390 161.000 L 311.688 160.949 312.135 159.738 C 312.381 159.072,312.589 158.242,312.598 157.894 C 312.606 157.546,312.749 157.001,312.915 156.683 C 313.081 156.365,313.210 155.787,313.202 155.399 C 313.194 155.010,313.160 154.783,313.126 154.894 C 313.092 155.005,312.923 155.641,312.750 156.307 C 312.577 156.973,312.231 158.268,311.982 159.184 L 311.528 160.850 297.288 160.799 L 283.047 160.747 282.997 99.964 C 282.951 44.907,282.976 39.152,283.263 38.864 C 283.744 38.384,312.488 38.381,313.174 38.861 L 313.623 39.175 313.623 58.296 C 313.623 70.606,313.694 77.488,313.822 77.616 C 313.953 77.747,314.557 77.295,315.588 76.293 C 318.138 73.816,321.840 71.611,324.622 70.911 C 332.607 68.904,339.100 69.277,345.308 72.102 C 350.175 74.317,353.631 79.130,354.472 84.864 C 354.944 88.085,354.959 139.446,354.489 142.566 C 354.323 143.666,354.190 144.847,354.193 145.189 C 354.199 145.894,353.477 149.032,353.028 150.252 C 350.619 156.799,344.042 161.529,336.205 162.349 C 333.476 162.634,327.854 162.345,326.974 161.873 C 326.785 161.772,326.179 161.600,325.626 161.490 C 322.563 160.882,318.552 158.470,315.638 155.485 C 313.955 153.760,313.204 153.371,313.235 154.238 C 313.244 154.488,313.297 154.579,313.353 154.440 C 313.552 153.945,313.989 154.210,315.679 155.853 C 316.620 156.768,317.599 157.654,317.852 157.820 C 318.106 157.987,318.419 158.214,318.547 158.325 C 319.021 158.736,320.005 159.375,320.888 159.846 C 321.387 160.112,321.932 160.437,322.099 160.566 C 322.265 160.696,322.719 160.870,323.108 160.951 C 323.496 161.033,323.869 161.186,323.937 161.292 C 324.004 161.397,324.458 161.535,324.946 161.597 C 325.433 161.659,326.070 161.830,326.361 161.977 C 328.325 162.967,338.090 162.957,340.061 161.963 C 340.338 161.823,340.906 161.647,341.322 161.572 C 341.738 161.496,342.079 161.358,342.079 161.265 C 342.079 161.171,342.387 161.036,342.765 160.966 C 343.142 160.895,343.562 160.703,343.698 160.540 C 343.833 160.376,344.078 160.242,344.241 160.242 C 344.404 160.242,344.746 160.083,345.000 159.889 C 345.255 159.695,345.668 159.400,345.918 159.233 C 347.957 157.877,350.943 155.007,351.407 153.957 C 351.548 153.640,351.725 153.380,351.801 153.380 C 351.876 153.380,352.176 152.858,352.467 152.220 C 352.757 151.582,353.127 150.818,353.289 150.524 C 353.450 150.229,353.582 149.754,353.582 149.468 C 353.582 149.183,353.717 148.606,353.881 148.188 C 354.046 147.769,354.268 146.655,354.374 145.711 C 354.481 144.768,354.666 143.468,354.786 142.824 C 355.097 141.154,354.985 84.334,354.670 83.936 C 354.546 83.780,354.391 83.235,354.324 82.725 C 354.258 82.214,354.072 81.533,353.911 81.211 C 353.750 80.889,353.377 80.126,353.083 79.516 C 352.104 77.486,350.688 75.582,349.329 74.470 C 348.854 74.082,348.310 73.614,348.119 73.432 C 347.928 73.249,347.541 72.977,347.258 72.826 C 345.295 71.782,343.214 70.838,342.877 70.838 C 342.749 70.838,342.358 70.705,342.008 70.544 C 341.659 70.382,340.782 70.160,340.061 70.051 C 339.339 69.942,338.340 69.760,337.841 69.647 C 336.661 69.381,330.539 69.382,329.364 69.648 C 328.865 69.762,327.820 69.945,327.043 70.056 C 326.266 70.168,325.344 70.389,324.995 70.548 C 324.645 70.707,324.159 70.838,323.916 70.838 C 323.672 70.838,323.232 70.973,322.937 71.139 C 322.643 71.305,322.175 71.531,321.897 71.643 C 321.620 71.754,321.211 71.951,320.989 72.080 C 320.225 72.523,319.979 72.657,319.677 72.794 C 318.732 73.223,316.876 74.695,314.999 76.502 C 314.315 77.161,314.010 77.344,313.933 77.142 C 313.873 76.986,313.824 68.295,313.824 57.829 C 313.824 40.375,313.797 38.775,313.491 38.521 C 313.216 38.293,310.544 38.235,298.349 38.190 L 283.541 38.136 283.042 38.635 M90.346 39.691 C 90.153 39.884,90.186 161.705,90.379 162.009 C 90.506 162.210,93.456 162.252,104.453 162.211 L 118.365 162.159 118.367 129.768 L 118.368 97.376 118.266 129.667 L 118.163 161.958 104.394 162.009 L 90.624 162.061 90.514 161.606 C 90.454 161.355,90.429 133.860,90.460 100.505 L 90.515 39.859 111.041 39.807 L 131.568 39.756 131.793 40.592 C 131.917 41.052,132.097 41.983,132.194 42.662 L 132.369 43.895 132.314 42.247 C 132.276 41.115,132.151 40.436,131.917 40.078 L 131.575 39.556 111.028 39.556 C 99.727 39.556,90.420 39.617,90.346 39.691 M147.132 39.849 C 146.998 40.011,146.763 41.305,146.609 42.725 C 146.455 44.146,146.240 45.716,146.130 46.216 C 146.021 46.715,145.926 47.714,145.920 48.436 C 145.914 49.157,145.774 50.194,145.608 50.738 C 145.443 51.283,145.320 52.237,145.335 52.858 L 145.362 53.986 145.512 53.078 C 145.595 52.578,145.766 51.398,145.892 50.454 C 146.019 49.511,146.257 47.740,146.422 46.519 C 146.587 45.298,146.816 43.499,146.932 42.523 C 147.047 41.546,147.226 40.524,147.330 40.252 L 147.518 39.758 168.083 39.758 L 188.648 39.758 188.774 40.388 C 188.991 41.473,188.921 160.968,188.703 161.541 L 188.506 162.059 174.987 162.059 C 162.315 162.059,161.456 162.036,161.286 161.705 C 161.182 161.503,161.048 145.225,160.973 123.571 C 160.901 102.792,160.786 85.514,160.718 85.176 C 160.526 84.214,160.282 84.451,160.158 85.721 C 160.095 86.360,159.940 87.608,159.813 88.496 C 159.685 89.384,159.553 90.565,159.520 91.120 L 159.458 92.129 159.648 91.322 C 159.997 89.836,160.234 88.103,160.241 86.983 C 160.246 86.191,160.304 85.960,160.444 86.176 C 160.568 86.368,160.641 100.143,160.643 124.052 C 160.646 158.008,160.676 161.657,160.964 161.945 C 161.249 162.230,162.732 162.258,175.035 162.211 L 188.787 162.159 189.043 161.655 C 189.473 160.804,189.418 40.304,188.987 39.873 C 188.523 39.409,147.516 39.386,147.132 39.849 M199.839 39.798 C 199.486 40.151,199.486 161.665,199.839 162.018 C 200.156 162.335,243.353 162.361,245.510 162.045 C 246.287 161.932,248.491 161.761,250.409 161.666 C 252.327 161.571,254.007 161.405,254.143 161.298 C 254.278 161.190,254.974 161.038,255.687 160.961 C 256.401 160.883,257.173 160.680,257.403 160.510 C 257.873 160.161,257.807 160.166,256.004 160.626 C 254.156 161.097,250.830 161.449,245.409 161.749 C 237.537 162.185,200.582 162.214,200.226 161.785 C 200.059 161.584,200.013 145.483,200.050 100.685 L 200.101 39.859 218.063 39.859 C 236.413 39.859,242.970 40.045,246.637 40.672 C 248.914 41.062,249.947 41.054,248.537 40.658 C 247.982 40.502,246.120 40.282,244.400 40.168 C 242.679 40.054,240.318 39.873,239.152 39.767 C 235.868 39.467,200.141 39.496,199.839 39.798 M48.507 40.301 C 48.269 40.348,48.020 40.585,47.955 40.829 C 47.673 41.880,47.821 162.607,48.105 162.842 C 48.528 163.193,79.967 163.062,80.039 162.709 C 80.067 162.568,80.045 162.545,79.988 162.659 C 79.853 162.932,48.867 162.941,48.436 162.668 C 47.897 162.328,47.986 41.044,48.525 40.650 C 48.855 40.408,51.336 40.363,64.324 40.363 L 79.730 40.363 79.913 40.817 C 80.093 41.266,80.096 41.267,80.108 40.839 C 80.115 40.601,79.977 40.351,79.802 40.284 C 79.450 40.149,49.201 40.165,48.507 40.301 M250.454 41.171 C 252.474 41.617,252.622 41.628,252.069 41.291 C 251.791 41.122,251.155 40.990,250.656 40.999 L 249.748 41.015 250.454 41.171 M253.582 41.898 C 254.137 42.061,254.928 42.281,255.339 42.388 C 255.751 42.494,256.432 42.731,256.853 42.914 C 257.274 43.097,257.936 43.384,258.325 43.550 C 258.713 43.717,259.168 43.931,259.334 44.026 C 259.501 44.121,259.818 44.279,260.040 44.377 C 263.065 45.713,269.135 52.100,269.230 54.047 C 269.234 54.124,269.412 54.551,269.627 54.995 C 269.841 55.439,270.020 55.943,270.023 56.115 C 270.027 56.287,270.116 56.514,270.221 56.620 C 270.393 56.793,270.873 58.770,271.247 60.848 C 271.389 61.636,271.393 61.629,271.411 60.545 C 271.421 59.920,271.303 59.215,271.140 58.930 C 270.982 58.653,270.849 58.130,270.845 57.769 C 270.841 57.408,270.656 56.774,270.434 56.359 C 270.212 55.945,270.030 55.483,270.030 55.332 C 270.030 55.090,269.744 54.454,269.197 53.481 C 269.104 53.315,268.887 52.906,268.716 52.573 C 268.113 51.399,267.861 51.037,266.953 50.036 C 266.758 49.822,266.599 49.611,266.599 49.567 C 266.599 49.484,265.804 48.526,265.086 47.742 C 264.361 46.952,261.785 45.005,261.464 45.005 C 261.291 45.005,261.150 44.912,261.150 44.798 C 261.150 44.684,260.946 44.503,260.696 44.395 C 260.447 44.287,260.106 44.113,259.939 44.009 C 259.206 43.549,255.834 42.180,255.435 42.180 C 255.274 42.180,254.882 42.044,254.564 41.878 C 254.246 41.712,253.668 41.582,253.280 41.589 C 252.600 41.601,252.611 41.613,253.582 41.898 M132.495 44.803 C 132.789 46.867,132.983 47.421,132.912 45.991 C 132.876 45.257,132.738 44.485,132.606 44.276 C 132.409 43.962,132.389 44.055,132.495 44.803 M133.077 48.638 C 133.120 49.137,133.259 50.182,133.387 50.959 C 133.731 53.045,134.006 54.938,134.313 57.316 C 134.589 59.455,134.829 61.146,135.239 63.824 C 135.362 64.629,135.537 65.787,135.628 66.398 C 135.776 67.380,135.787 67.309,135.732 65.774 C 135.697 64.820,135.567 63.850,135.443 63.618 C 135.319 63.385,135.217 62.696,135.217 62.087 C 135.217 61.477,135.035 60.057,134.813 58.930 C 134.591 57.804,134.410 56.452,134.410 55.925 C 134.410 55.398,134.283 54.519,134.128 53.972 C 133.973 53.425,133.787 52.250,133.715 51.362 C 133.643 50.474,133.452 49.294,133.292 48.739 L 132.999 47.730 133.077 48.638 M145.039 55.499 C 144.617 57.820,144.529 58.504,144.515 59.573 C 144.507 60.204,144.403 60.976,144.284 61.289 C 144.165 61.601,143.983 62.901,143.879 64.178 C 143.775 65.454,143.594 66.790,143.477 67.146 C 143.360 67.501,143.189 68.773,143.096 69.971 C 143.004 71.169,142.830 72.513,142.710 72.957 C 142.590 73.401,142.504 74.354,142.518 75.076 L 142.544 76.387 142.688 75.177 C 142.832 73.963,143.062 72.288,143.603 68.517 C 143.762 67.407,143.986 65.636,144.101 64.581 C 144.216 63.527,144.394 62.255,144.497 61.756 C 144.600 61.256,144.689 60.412,144.694 59.880 C 144.698 59.349,144.844 58.229,145.017 57.392 C 145.189 56.555,145.302 55.582,145.268 55.231 C 145.209 54.640,145.192 54.661,145.039 55.499 M231.778 60.999 C 231.726 61.138,231.706 79.097,231.734 100.908 L 231.786 140.565 233.905 140.559 C 236.260 140.552,237.748 140.173,238.924 139.281 C 239.674 138.712,240.631 137.331,240.515 136.984 C 240.475 136.863,240.280 137.105,240.082 137.522 C 239.691 138.346,239.073 139.051,238.742 139.051 C 238.628 139.051,238.482 139.188,238.418 139.354 C 238.354 139.521,238.150 139.657,237.963 139.657 C 237.777 139.657,237.098 139.842,236.454 140.068 C 235.562 140.382,234.890 140.466,233.635 140.422 L 231.988 140.363 231.933 101.110 C 231.902 79.521,231.930 61.641,231.994 61.376 C 232.105 60.914,232.162 60.900,233.462 61.012 C 237.362 61.346,238.533 61.724,239.805 63.059 C 240.223 63.498,240.565 63.766,240.565 63.655 C 240.565 63.369,239.170 62.076,238.446 61.691 C 237.019 60.931,232.002 60.411,231.778 60.999 M271.466 63.169 C 271.458 63.668,271.584 65.257,271.748 66.700 C 272.092 69.743,272.173 134.803,271.837 138.143 C 271.514 141.357,271.427 143.180,271.656 141.978 C 272.218 139.018,272.262 135.523,272.184 100.807 C 272.113 69.618,272.063 64.907,271.792 63.673 C 271.492 62.309,271.481 62.292,271.466 63.169 M240.573 64.238 C 240.569 64.438,240.724 64.892,240.918 65.247 C 241.251 65.855,241.271 67.869,241.271 99.395 C 241.271 130.798,241.249 132.957,240.918 133.862 C 240.724 134.393,240.573 135.256,240.584 135.779 C 240.601 136.661,240.633 136.598,241.019 134.914 C 241.486 132.880,241.832 72.825,241.408 67.443 C 241.246 65.391,240.602 62.920,240.573 64.238 M135.906 68.517 C 136.009 69.494,136.351 71.913,136.735 74.369 C 137.090 76.639,137.379 78.638,137.727 81.231 C 137.876 82.341,138.097 83.794,138.218 84.460 C 138.339 85.126,138.537 86.398,138.659 87.286 C 138.780 88.174,138.953 89.263,139.041 89.707 L 139.203 90.515 139.228 89.491 C 139.242 88.928,139.125 88.065,138.967 87.574 C 138.810 87.082,138.632 85.877,138.572 84.895 C 138.512 83.913,138.380 83.004,138.278 82.876 C 138.176 82.748,138.030 81.813,137.953 80.798 C 137.876 79.782,137.683 78.519,137.524 77.991 C 137.365 77.462,137.231 76.567,137.226 76.002 C 137.221 75.437,137.124 74.566,137.010 74.067 C 136.896 73.567,136.683 72.159,136.538 70.938 C 136.392 69.717,136.171 68.491,136.047 68.214 C 135.842 67.757,135.829 67.785,135.906 68.517 M142.224 77.195 C 142.142 77.528,141.942 78.981,141.782 80.424 C 141.621 81.867,141.399 83.456,141.288 83.956 C 141.178 84.455,141.083 85.396,141.078 86.046 C 141.074 86.696,140.940 87.740,140.782 88.366 C 140.624 88.993,140.431 90.407,140.352 91.508 C 140.200 93.638,139.885 93.677,139.425 91.625 C 139.299 91.063,139.282 91.146,139.344 92.028 C 139.411 92.985,140.192 95.316,140.257 94.753 C 140.329 94.132,140.886 89.442,141.072 87.891 C 141.192 86.892,141.417 85.257,141.572 84.258 C 141.728 83.259,141.907 81.771,141.971 80.952 C 142.034 80.132,142.183 79.078,142.301 78.611 C 142.419 78.143,142.483 77.497,142.445 77.175 L 142.375 76.589 142.224 77.195 M118.471 84.561 C 118.467 85.860,118.910 88.688,119.177 89.069 L 119.475 89.494 119.475 89.056 C 119.475 88.814,119.339 88.094,119.173 87.455 C 119.006 86.816,118.868 85.926,118.867 85.477 C 118.865 85.029,118.776 84.526,118.668 84.359 C 118.513 84.119,118.472 84.161,118.471 84.561 M316.145 87.861 C 313.623 89.043,313.724 87.884,313.724 115.843 L 313.724 139.758 314.161 141.217 C 315.143 144.495,317.565 145.537,321.116 144.212 C 323.257 143.413,323.400 143.037,323.915 136.831 C 324.185 133.578,324.175 95.096,323.903 93.542 C 323.401 90.665,323.318 90.416,323.415 92.081 C 323.466 92.942,323.602 94.032,323.719 94.502 C 324.387 97.197,323.671 142.194,322.957 142.432 C 322.818 142.478,322.704 142.637,322.704 142.785 C 322.704 143.128,321.592 143.809,320.739 143.990 C 320.379 144.066,320.034 144.212,319.970 144.314 C 319.731 144.702,317.196 144.524,316.317 144.058 C 313.927 142.792,313.869 142.124,313.863 116.044 C 313.857 91.435,313.926 90.216,315.407 88.702 C 316.380 87.707,319.567 87.481,320.782 88.322 C 321.000 88.473,321.306 88.597,321.459 88.597 C 321.800 88.597,322.696 89.417,322.701 89.733 C 322.703 89.858,322.841 90.074,323.007 90.212 C 323.409 90.545,323.390 90.323,322.959 89.650 C 321.911 88.010,318.011 86.986,316.145 87.861 M119.510 90.817 C 119.496 91.539,119.581 92.492,119.698 92.936 C 119.815 93.380,120.031 94.788,120.178 96.065 C 120.325 97.341,120.544 98.641,120.666 98.954 C 120.788 99.266,120.890 100.038,120.893 100.669 C 120.895 101.300,120.995 102.180,121.113 102.624 C 121.232 103.068,121.450 104.430,121.598 105.651 C 121.872 107.916,122.373 110.016,122.223 108.274 C 122.138 107.278,121.755 104.646,121.460 103.027 C 121.338 102.361,121.169 101.135,121.084 100.303 C 120.999 99.470,120.791 97.926,120.622 96.872 C 119.949 92.664,119.799 91.681,119.670 90.616 L 119.535 89.506 119.510 90.817 M159.177 93.542 C 159.091 94.097,158.979 94.960,158.928 95.459 L 158.837 96.367 159.141 95.459 C 159.309 94.960,159.421 94.097,159.390 93.542 L 159.334 92.533 159.177 93.542 M158.667 97.188 C 158.645 97.639,158.536 98.503,158.424 99.108 C 158.313 99.712,158.089 101.250,157.928 102.525 C 157.307 107.432,157.188 108.333,156.915 110.192 C 156.516 112.912,156.189 115.391,156.091 116.448 C 155.898 118.513,156.444 116.118,156.712 113.724 C 156.861 112.392,157.076 110.893,157.191 110.394 C 157.305 109.894,157.403 108.999,157.408 108.405 C 157.413 107.810,157.545 106.811,157.703 106.185 C 157.860 105.558,158.047 104.273,158.119 103.330 C 158.190 102.386,158.385 101.024,158.552 100.303 C 158.722 99.569,158.822 98.413,158.780 97.679 C 158.735 96.879,158.690 96.687,158.667 97.188 M122.324 110.538 C 122.311 111.228,122.427 112.181,122.581 112.657 C 122.736 113.133,122.912 114.295,122.972 115.240 C 123.032 116.185,123.178 117.212,123.296 117.523 C 123.414 117.833,123.562 118.740,123.624 119.538 C 123.686 120.336,123.862 121.625,124.015 122.402 C 124.168 123.179,124.383 124.541,124.493 125.429 C 124.603 126.317,124.780 127.407,124.886 127.851 L 125.080 128.658 125.096 127.952 C 125.105 127.563,124.980 126.700,124.819 126.034 C 124.659 125.368,124.526 124.460,124.525 124.016 C 124.524 123.572,124.389 122.482,124.225 121.594 C 124.061 120.706,123.740 118.663,123.512 117.053 C 122.978 113.293,122.488 109.972,122.409 109.586 C 122.375 109.420,122.337 109.848,122.324 110.538 M155.841 118.163 C 155.805 118.743,155.543 120.638,154.892 125.025 C 154.727 126.135,154.501 127.906,154.389 128.961 C 154.277 130.015,154.097 131.241,153.989 131.685 C 153.882 132.129,153.790 132.947,153.786 133.502 C 153.781 134.057,153.646 135.055,153.485 135.721 C 153.325 136.387,153.200 137.296,153.209 137.740 L 153.225 138.547 153.385 137.841 C 153.755 136.202,153.984 134.652,153.985 133.764 C 153.985 133.242,154.122 132.292,154.289 131.653 C 154.455 131.013,154.591 130.052,154.591 129.515 C 154.591 128.979,154.736 127.840,154.913 126.984 C 155.090 126.129,155.309 124.612,155.399 123.613 C 155.490 122.614,155.668 121.376,155.795 120.863 C 155.922 120.350,155.993 119.397,155.952 118.744 C 155.912 118.092,155.862 117.830,155.841 118.163 M125.167 130.172 C 125.161 130.782,125.287 131.599,125.447 131.988 L 125.736 132.694 125.610 131.685 C 125.328 129.439,125.178 128.927,125.167 130.172 M125.767 134.006 C 125.753 134.728,125.837 135.681,125.954 136.125 C 126.071 136.569,126.286 137.990,126.432 139.283 C 126.578 140.575,126.801 141.801,126.929 142.007 C 127.243 142.513,127.142 141.619,126.229 135.822 C 126.063 134.768,125.897 133.633,125.860 133.300 C 125.823 132.967,125.781 133.285,125.767 134.006 M152.724 141.473 C 151.981 146.765,151.436 150.817,151.149 153.179 C 151.034 154.122,150.812 155.666,150.655 156.609 C 150.499 157.553,150.324 158.950,150.266 159.715 C 150.208 160.480,150.021 161.320,149.849 161.582 L 149.537 162.059 139.874 162.059 L 130.212 162.059 129.885 160.590 C 129.706 159.783,129.473 158.368,129.368 157.446 C 129.263 156.524,129.084 155.255,128.970 154.626 C 128.856 153.996,128.729 153.254,128.688 152.977 C 128.646 152.699,128.600 153.037,128.584 153.727 C 128.569 154.416,128.683 155.370,128.838 155.846 C 128.992 156.321,129.168 157.485,129.228 158.432 C 129.289 159.379,129.506 160.605,129.711 161.156 L 130.083 162.159 139.990 162.212 C 151.380 162.272,150.230 162.531,150.520 159.839 C 150.633 158.784,150.820 157.513,150.934 157.013 C 151.049 156.514,151.147 155.529,151.152 154.824 C 151.156 154.120,151.293 153.075,151.454 152.503 C 151.615 151.931,151.835 150.555,151.943 149.445 C 152.050 148.335,152.232 147.018,152.347 146.519 C 152.462 146.019,152.560 145.080,152.564 144.431 C 152.569 143.782,152.714 142.765,152.887 142.172 C 153.059 141.578,153.173 140.611,153.139 140.022 C 153.086 139.097,153.029 139.296,152.724 141.473 M127.185 143.592 C 127.172 144.258,127.255 145.212,127.369 145.711 C 127.483 146.211,127.700 147.619,127.850 148.840 C 128.129 151.114,128.628 153.190,128.480 151.463 C 128.400 150.532,128.067 148.219,127.638 145.610 C 127.473 144.612,127.310 143.476,127.274 143.088 C 127.238 142.699,127.198 142.926,127.185 143.592 M271.189 144.400 C 271.106 144.955,270.987 145.681,270.927 146.014 L 270.817 146.620 271.141 146.057 C 271.353 145.687,271.443 145.135,271.403 144.443 L 271.342 143.391 271.189 144.400 M270.667 147.124 C 270.648 147.402,270.498 147.889,270.332 148.207 C 270.166 148.525,270.030 148.932,270.030 149.112 C 270.030 149.292,270.217 149.091,270.445 148.665 C 270.699 148.191,270.829 147.644,270.780 147.255 C 270.716 146.747,270.694 146.721,270.667 147.124 M269.230 151.025 C 268.423 152.694,266.932 154.720,265.604 155.950 C 265.097 156.420,264.780 156.806,264.899 156.808 C 265.420 156.816,268.819 152.849,268.819 152.234 C 268.819 152.088,268.908 151.968,269.017 151.968 C 269.126 151.968,269.275 151.718,269.347 151.413 C 269.420 151.107,269.611 150.706,269.772 150.520 C 269.934 150.334,270.035 150.046,269.998 149.880 C 269.960 149.713,269.615 150.229,269.230 151.025 M263.673 157.410 C 262.693 158.089,260.840 159.085,259.914 159.431 C 259.539 159.571,258.915 159.806,258.527 159.955 L 257.820 160.224 258.452 160.233 C 258.799 160.238,259.196 160.106,259.334 159.939 C 259.472 159.773,259.789 159.637,260.038 159.637 C 260.287 159.637,260.721 159.455,261.004 159.233 C 261.286 159.011,261.650 158.829,261.813 158.829 C 261.977 158.829,262.223 158.693,262.361 158.527 C 262.499 158.360,262.724 158.224,262.860 158.224 C 262.996 158.224,263.295 158.065,263.524 157.871 C 263.754 157.677,264.108 157.415,264.312 157.289 C 264.516 157.163,264.637 157.013,264.581 156.956 C 264.526 156.898,264.117 157.103,263.673 157.410 " stroke="none" fill="#947804" fill-rule="evenodd"></path><path id="path3" d="M290.883 38.698 C 294.970 38.729,301.600 38.729,305.615 38.698 C 309.631 38.668,306.287 38.643,298.184 38.643 C 290.081 38.643,286.795 38.668,290.883 38.698 M234.965 39.897 C 235.159 39.948,235.477 39.948,235.671 39.897 C 235.865 39.846,235.706 39.805,235.318 39.805 C 234.929 39.805,234.770 39.846,234.965 39.897 M237.588 40.099 C 237.783 40.150,238.100 40.150,238.295 40.099 C 238.489 40.048,238.330 40.006,237.941 40.006 C 237.553 40.006,237.394 40.048,237.588 40.099 M240.517 40.304 C 240.768 40.352,241.131 40.351,241.324 40.300 C 241.517 40.250,241.312 40.210,240.868 40.212 C 240.424 40.215,240.266 40.256,240.517 40.304 M56.574 40.515 C 60.883 40.545,67.876 40.545,72.114 40.515 C 76.351 40.484,72.825 40.459,64.279 40.459 C 55.732 40.459,52.265 40.484,56.574 40.515 M188.798 100.908 C 188.798 134.152,188.821 147.752,188.850 131.130 C 188.878 114.508,188.878 87.308,188.850 70.686 C 188.821 54.064,188.798 67.664,188.798 100.908 M80.019 101.816 C 80.019 135.227,80.042 148.925,80.071 132.256 C 80.099 115.588,80.099 88.252,80.071 71.510 C 80.042 54.768,80.019 68.406,80.019 101.816 M48.132 101.615 C 48.132 134.803,48.155 148.350,48.184 131.719 C 48.212 115.088,48.212 87.934,48.184 71.376 C 48.155 54.819,48.132 68.426,48.132 101.615 M232.546 60.690 C 232.852 60.736,233.307 60.735,233.555 60.687 C 233.803 60.639,233.552 60.601,232.997 60.603 C 232.442 60.604,232.239 60.643,232.546 60.690 M271.907 69.627 C 271.907 70.237,271.945 70.487,271.991 70.182 C 272.037 69.876,272.037 69.377,271.991 69.072 C 271.945 68.766,271.907 69.016,271.907 69.627 M330.827 69.766 C 331.022 69.817,331.340 69.817,331.534 69.766 C 331.728 69.715,331.569 69.673,331.181 69.673 C 330.792 69.673,330.633 69.715,330.827 69.766 M335.371 69.769 C 335.622 69.818,335.985 69.816,336.178 69.765 C 336.371 69.715,336.165 69.675,335.721 69.678 C 335.277 69.680,335.120 69.721,335.371 69.769 M241.672 99.596 C 241.672 113.693,241.696 119.430,241.726 112.346 C 241.755 105.261,241.755 93.727,241.725 86.715 C 241.696 79.703,241.672 85.499,241.672 99.596 M160.242 84.359 C 160.242 84.470,160.333 84.561,160.444 84.561 C 160.555 84.561,160.646 84.758,160.646 84.998 C 160.646 85.239,160.702 85.379,160.771 85.310 C 160.953 85.129,160.674 84.157,160.440 84.157 C 160.331 84.157,160.242 84.248,160.242 84.359 M118.354 91.221 C 118.354 94.717,118.382 96.148,118.415 94.400 C 118.449 92.651,118.449 89.791,118.415 88.042 C 118.382 86.294,118.354 87.725,118.354 91.221 M160.943 99.092 C 160.943 106.362,160.968 109.337,160.999 105.701 C 161.030 102.066,161.030 96.118,160.999 92.482 C 160.968 88.847,160.943 91.821,160.943 99.092 M354.638 86.983 C 354.638 87.371,354.680 87.530,354.730 87.336 C 354.781 87.142,354.781 86.824,354.730 86.630 C 354.680 86.435,354.638 86.594,354.638 86.983 M313.673 94.551 C 313.676 94.995,313.717 95.153,313.765 94.902 C 313.814 94.651,313.812 94.287,313.761 94.095 C 313.711 93.902,313.671 94.107,313.673 94.551 M241.419 130.172 C 241.419 130.560,241.461 130.719,241.511 130.525 C 241.562 130.330,241.562 130.013,241.511 129.818 C 241.461 129.624,241.419 129.783,241.419 130.172 M323.962 136.024 C 323.962 136.413,324.004 136.572,324.054 136.377 C 324.105 136.183,324.105 135.865,324.054 135.671 C 324.004 135.477,323.962 135.636,323.962 136.024 M271.893 136.226 C 271.893 136.615,271.935 136.773,271.986 136.579 C 272.036 136.385,272.036 136.067,271.986 135.873 C 271.935 135.679,271.893 135.838,271.893 136.226 M313.669 137.235 C 313.669 137.624,313.711 137.783,313.762 137.588 C 313.812 137.394,313.812 137.076,313.762 136.882 C 313.711 136.688,313.669 136.847,313.669 137.235 M246.872 161.592 C 247.066 161.643,247.384 161.643,247.578 161.592 C 247.772 161.541,247.614 161.500,247.225 161.500 C 246.837 161.500,246.678 161.541,246.872 161.592 M243.845 161.794 C 244.039 161.845,244.357 161.845,244.551 161.794 C 244.745 161.743,244.586 161.702,244.198 161.702 C 243.809 161.702,243.650 161.743,243.845 161.794 M240.616 161.996 C 240.810 162.047,241.128 162.047,241.322 161.996 C 241.516 161.945,241.357 161.904,240.969 161.904 C 240.580 161.904,240.421 161.945,240.616 161.996 " stroke="none" fill="#7c6404" fill-rule="evenodd"></path><path id="path4" d="M283.189 38.991 C 282.807 39.373,282.839 160.306,283.221 160.622 C 283.643 160.973,311.451 160.842,311.522 160.489 C 311.551 160.348,311.528 160.325,311.472 160.439 C 311.403 160.577,306.726 160.646,297.359 160.646 L 283.349 160.646 283.400 99.849 L 283.451 39.051 298.107 39.000 C 310.228 38.957,312.803 38.995,312.990 39.221 C 313.154 39.418,313.231 44.874,313.268 58.748 C 313.328 81.224,313.022 79.173,315.902 76.389 C 316.878 75.444,317.757 74.672,317.855 74.672 C 317.953 74.672,318.156 74.559,318.306 74.420 C 319.222 73.571,322.293 71.847,322.890 71.847 C 323.071 71.847,323.407 71.715,323.636 71.555 C 323.865 71.395,324.523 71.201,325.098 71.125 C 325.674 71.049,326.190 70.913,326.245 70.823 C 326.352 70.650,326.450 70.635,330.798 70.123 C 333.301 69.829,333.757 69.828,335.978 70.117 C 337.318 70.291,338.762 70.434,339.187 70.435 C 339.612 70.436,340.220 70.572,340.538 70.738 C 340.856 70.904,341.310 71.036,341.547 71.031 C 342.406 71.016,340.593 70.408,339.152 70.228 C 333.274 69.497,333.745 69.497,327.851 70.227 C 327.185 70.310,326.205 70.526,325.674 70.708 C 325.143 70.890,324.566 71.039,324.393 71.039 C 322.771 71.039,317.965 74.030,315.212 76.753 C 314.560 77.398,313.936 77.869,313.825 77.800 C 313.692 77.718,313.623 71.057,313.623 58.421 C 313.623 39.591,313.614 39.162,313.232 38.958 C 312.636 38.638,283.509 38.671,283.189 38.991 M90.507 40.010 C 90.454 40.149,90.435 67.508,90.463 100.807 L 90.515 161.352 90.565 100.656 L 90.616 39.960 110.999 39.960 L 131.382 39.960 131.398 40.515 C 131.406 40.820,131.543 41.387,131.703 41.776 L 131.992 42.482 131.889 41.636 C 131.832 41.171,131.697 40.558,131.589 40.274 L 131.392 39.758 110.998 39.758 C 94.867 39.758,90.583 39.811,90.507 40.010 M147.434 40.009 C 147.231 40.639,146.924 42.453,146.936 42.946 C 146.956 43.764,147.508 41.655,147.519 40.716 L 147.528 39.960 168.012 39.960 L 188.496 39.960 188.494 100.454 C 188.492 133.726,188.436 161.153,188.369 161.403 L 188.248 161.857 174.973 161.857 C 163.054 161.857,161.686 161.824,161.576 161.537 C 161.508 161.362,161.440 149.942,161.424 136.159 C 161.387 104.602,161.196 80.707,160.985 81.231 C 160.143 83.322,160.029 83.815,159.952 85.682 C 159.873 87.610,159.902 87.543,160.156 85.217 C 160.275 84.124,160.475 83.896,160.776 84.511 C 160.871 84.705,160.994 102.145,161.049 123.267 C 161.138 157.109,161.186 161.692,161.453 161.861 C 161.976 162.191,188.196 162.118,188.472 161.785 C 188.639 161.584,188.686 145.483,188.648 100.685 L 188.597 39.859 168.057 39.807 C 151.724 39.766,147.499 39.808,147.434 40.009 M200.252 39.891 C 199.824 40.064,199.888 161.313,200.317 161.741 C 200.741 162.165,237.699 162.182,243.290 161.760 L 246.720 161.502 243.693 161.581 C 233.998 161.835,200.732 161.860,200.575 161.613 C 200.484 161.469,200.408 134.039,200.407 100.656 L 200.404 39.960 216.801 39.958 C 226.871 39.957,233.783 40.037,234.712 40.164 C 235.545 40.277,238.315 40.458,240.868 40.566 C 243.421 40.674,246.054 40.851,246.720 40.959 C 247.386 41.067,248.567 41.244,249.344 41.352 C 251.091 41.593,252.784 41.939,253.582 42.217 C 253.915 42.333,254.460 42.466,254.793 42.513 C 255.750 42.647,253.341 41.864,251.665 41.495 C 250.832 41.312,249.425 41.076,248.537 40.971 C 247.649 40.865,246.377 40.686,245.711 40.572 C 245.045 40.459,243.729 40.363,242.785 40.360 C 241.842 40.357,239.435 40.223,237.437 40.062 C 233.894 39.777,200.912 39.625,200.252 39.891 M48.476 40.807 C 47.991 41.293,48.140 162.398,48.627 162.658 C 49.323 163.031,79.764 162.840,79.867 162.462 C 79.929 162.237,79.904 162.224,79.771 162.413 C 79.629 162.613,76.365 162.656,64.165 162.615 L 48.739 162.563 48.684 102.119 C 48.653 68.875,48.678 41.471,48.738 41.221 L 48.847 40.767 64.266 40.767 C 76.411 40.767,79.705 40.820,79.786 41.019 C 79.846 41.170,79.894 41.129,79.903 40.918 C 79.924 40.468,48.925 40.358,48.476 40.807 M132.013 43.563 C 131.987 44.699,132.633 47.802,132.760 47.150 C 132.801 46.943,132.730 46.398,132.603 45.939 C 132.477 45.481,132.298 44.516,132.206 43.794 L 132.039 42.482 132.013 43.563 M255.808 42.856 C 256.027 43.006,256.467 43.192,256.786 43.270 C 257.919 43.545,261.513 45.444,262.933 46.517 C 263.672 47.075,266.197 49.730,266.716 50.493 C 267.040 50.971,267.410 51.473,267.537 51.608 C 267.664 51.743,267.963 52.242,268.202 52.718 C 268.442 53.193,268.721 53.718,268.822 53.885 C 269.179 54.468,269.828 56.086,269.828 56.390 C 269.828 56.559,269.954 56.995,270.107 57.359 C 270.594 58.517,271.077 61.559,271.255 64.581 C 271.350 66.191,271.521 68.552,271.634 69.828 C 271.995 73.899,271.913 133.121,271.540 137.538 C 270.977 144.205,270.616 146.802,270.116 147.796 C 269.958 148.111,269.839 148.565,269.852 148.805 C 269.874 149.215,269.882 149.217,269.974 148.840 C 270.029 148.618,270.154 148.337,270.252 148.215 C 270.514 147.892,271.022 145.287,271.251 143.088 C 271.361 142.033,271.560 140.399,271.692 139.455 C 272.017 137.144,272.166 73.703,271.857 69.425 C 271.741 67.815,271.552 65.227,271.437 63.673 C 271.322 62.119,271.100 60.303,270.944 59.637 C 270.787 58.971,270.598 58.108,270.523 57.719 C 270.448 57.331,270.319 56.922,270.237 56.811 C 270.154 56.700,270.023 56.337,269.945 56.004 C 268.898 51.504,263.496 45.806,258.123 43.532 C 257.735 43.368,257.073 43.087,256.653 42.908 C 255.723 42.512,255.265 42.484,255.808 42.856 M146.758 44.538 C 146.737 44.891,146.591 46.027,146.432 47.060 C 146.032 49.668,145.674 52.402,145.590 53.481 L 145.519 54.390 145.810 53.280 C 145.970 52.669,146.155 51.398,146.221 50.454 C 146.288 49.511,146.478 48.144,146.644 47.416 C 146.810 46.689,146.912 45.599,146.871 44.995 C 146.829 44.390,146.778 44.184,146.758 44.538 M132.832 48.940 C 132.822 49.606,132.944 50.515,133.104 50.959 C 133.264 51.403,133.401 52.265,133.410 52.876 C 133.424 53.963,133.584 54.991,133.991 56.609 L 134.193 57.417 134.119 56.509 C 134.049 55.648,133.870 54.384,133.363 51.160 C 133.241 50.383,133.076 49.294,132.996 48.739 L 132.852 47.730 132.832 48.940 M145.347 55.500 C 145.325 55.999,145.173 57.044,145.009 57.820 C 144.844 58.597,144.705 59.733,144.699 60.343 C 144.693 60.954,144.558 62.043,144.400 62.765 C 144.241 63.486,144.120 64.440,144.131 64.884 L 144.151 65.691 144.317 64.783 C 144.793 62.185,144.876 61.558,144.889 60.475 C 144.898 59.826,145.045 58.811,145.217 58.219 C 145.405 57.572,145.501 56.635,145.458 55.867 C 145.402 54.881,145.377 54.797,145.347 55.500 M134.248 59.132 C 134.243 59.743,134.369 60.560,134.528 60.949 L 134.818 61.655 134.692 60.646 C 134.410 58.400,134.260 57.888,134.248 59.132 M231.837 60.561 C 231.502 60.756,231.483 62.881,231.483 100.685 C 231.483 138.458,231.502 140.619,231.837 140.893 C 232.136 141.138,232.450 141.144,233.905 140.932 L 235.621 140.682 233.883 140.763 C 232.748 140.816,232.066 140.764,231.916 140.614 C 231.562 140.261,231.587 61.080,231.940 60.786 C 232.080 60.670,232.557 60.538,233.000 60.493 L 233.804 60.411 232.997 60.383 C 232.553 60.368,232.031 60.448,231.837 60.561 M234.712 60.745 C 235.212 60.825,236.029 60.954,236.529 61.031 L 237.437 61.171 236.758 60.858 C 236.366 60.677,235.598 60.556,234.942 60.572 L 233.804 60.599 234.712 60.745 M238.513 61.676 C 240.172 62.503,241.141 64.062,241.382 66.297 L 241.513 67.508 241.543 66.334 C 241.602 64.101,239.512 61.150,237.872 61.150 C 237.620 61.150,237.870 61.355,238.513 61.676 M134.840 63.055 C 134.825 63.714,134.945 64.803,135.106 65.477 C 135.267 66.150,135.438 66.882,135.486 67.104 C 135.534 67.327,135.584 67.191,135.596 66.801 C 135.608 66.413,135.519 65.736,135.397 65.298 C 135.275 64.860,135.106 63.906,135.021 63.179 L 134.866 61.857 134.840 63.055 M143.715 67.966 C 143.560 68.996,143.479 69.884,143.535 69.939 C 143.716 70.120,144.131 67.732,144.062 66.902 C 144.010 66.262,143.938 66.483,143.715 67.966 M135.661 68.920 C 135.656 69.475,135.779 70.293,135.935 70.737 L 136.219 71.544 136.098 70.535 C 136.032 69.980,135.909 69.162,135.824 68.718 L 135.671 67.911 135.661 68.920 M241.675 99.084 C 241.675 119.761,241.740 129.852,241.869 129.054 C 242.127 127.461,242.123 71.940,241.866 69.627 C 241.739 68.490,241.675 78.421,241.675 99.084 M143.328 71.072 C 143.307 71.590,143.153 72.725,142.987 73.595 C 142.820 74.465,142.695 75.449,142.708 75.782 C 142.722 76.162,142.761 76.237,142.812 75.984 C 142.856 75.762,143.032 74.945,143.203 74.168 C 143.375 73.385,143.481 72.169,143.441 71.443 C 143.383 70.404,143.359 70.327,143.328 71.072 M342.381 71.188 C 342.603 71.244,342.964 71.415,343.183 71.568 C 343.402 71.721,343.777 71.847,344.016 71.847 C 344.255 71.847,344.557 71.974,344.686 72.130 C 344.815 72.285,345.160 72.473,345.452 72.546 C 345.907 72.660,347.640 73.696,348.497 74.366 C 349.143 74.872,350.406 76.242,350.911 76.986 C 351.215 77.434,351.567 77.911,351.694 78.046 C 351.821 78.180,352.133 78.725,352.387 79.256 C 352.640 79.787,352.912 80.267,352.990 80.323 C 353.068 80.378,353.177 80.605,353.233 80.827 C 353.329 81.211,353.335 81.210,353.357 80.802 C 353.370 80.566,353.244 80.259,353.078 80.121 C 352.911 79.983,352.775 79.783,352.775 79.678 C 352.775 78.236,347.269 72.452,345.896 72.452 C 345.783 72.452,345.355 72.276,344.944 72.060 C 343.691 71.403,342.743 71.038,342.351 71.063 C 342.018 71.084,342.022 71.097,342.381 71.188 M136.262 72.755 C 136.247 73.421,136.332 74.329,136.449 74.773 C 136.567 75.217,136.784 76.579,136.931 77.800 C 137.079 79.021,137.291 80.293,137.402 80.626 C 137.708 81.542,137.684 80.725,137.346 78.726 C 136.809 75.540,136.568 73.975,136.427 72.755 L 136.288 71.544 136.262 72.755 M142.440 78.002 C 142.361 78.557,142.248 79.465,142.189 80.020 L 142.082 81.029 142.384 80.020 C 142.550 79.465,142.662 78.557,142.634 78.002 L 142.583 76.993 142.440 78.002 M141.916 82.038 C 141.894 82.593,141.741 83.759,141.574 84.629 C 141.408 85.499,141.286 86.680,141.303 87.253 L 141.335 88.295 141.485 86.983 C 141.568 86.261,141.740 85.193,141.867 84.609 C 141.994 84.025,142.066 82.981,142.026 82.288 C 141.959 81.113,141.952 81.097,141.916 82.038 M353.389 81.544 C 353.384 81.716,353.480 81.956,353.601 82.078 C 354.488 82.964,355.191 134.887,354.388 140.224 C 354.277 140.966,354.105 142.695,354.006 144.065 C 353.907 145.436,353.726 146.657,353.604 146.780 C 353.481 146.903,353.387 147.280,353.395 147.619 C 353.423 148.842,353.994 146.744,354.189 144.702 C 354.289 143.648,354.469 141.964,354.589 140.961 C 354.974 137.722,354.748 86.536,354.338 84.218 C 354.042 82.541,353.409 80.759,353.389 81.544 M137.662 82.770 C 137.649 83.394,137.763 84.257,137.914 84.687 C 138.065 85.117,138.255 86.257,138.335 87.220 C 138.414 88.183,138.609 89.364,138.766 89.844 C 139.156 91.029,138.972 89.397,138.136 84.258 C 137.699 81.574,137.688 81.537,137.662 82.770 M118.348 82.984 C 118.253 83.241,118.127 101.070,118.069 122.603 L 117.962 161.756 104.453 161.808 C 93.787 161.849,90.906 161.806,90.764 161.606 C 90.631 161.417,90.606 161.429,90.667 161.655 C 90.740 161.920,92.444 161.958,104.457 161.958 L 118.163 161.958 118.264 122.973 C 118.320 101.532,118.429 83.926,118.507 83.848 C 118.661 83.694,118.724 83.949,119.054 86.075 C 119.174 86.852,119.359 88.032,119.463 88.698 C 119.567 89.364,119.761 90.636,119.893 91.524 C 120.025 92.412,120.200 93.547,120.282 94.046 L 120.430 94.955 120.457 93.932 C 120.472 93.369,120.358 92.461,120.203 91.914 C 120.048 91.366,119.870 90.186,119.808 89.291 C 119.746 88.395,119.607 87.429,119.498 87.144 C 119.390 86.859,119.207 85.782,119.092 84.752 C 118.870 82.766,118.635 82.206,118.348 82.984 M316.661 87.419 C 315.554 87.676,314.467 88.478,314.295 89.165 C 314.224 89.448,314.044 89.914,313.895 90.198 C 313.725 90.525,313.637 91.314,313.658 92.331 L 313.691 93.946 313.824 92.331 C 314.115 88.787,315.000 87.764,317.944 87.572 C 318.953 87.506,319.596 87.436,319.374 87.417 C 319.152 87.398,318.653 87.343,318.264 87.296 C 317.876 87.249,317.154 87.304,316.661 87.419 M320.484 87.872 C 322.097 88.479,322.314 88.619,322.899 89.427 C 323.236 89.892,323.512 90.480,323.512 90.734 C 323.512 90.988,323.652 91.801,323.823 92.540 C 324.273 94.479,324.144 137.475,323.680 140.480 C 323.194 143.621,322.149 144.486,318.642 144.649 C 315.407 144.799,314.215 143.486,313.834 139.354 L 313.685 137.740 313.655 139.354 C 313.636 140.399,313.725 141.160,313.908 141.510 C 314.063 141.808,314.248 142.317,314.320 142.642 C 314.448 143.226,315.068 143.921,316.039 144.570 C 316.868 145.125,320.023 145.036,321.355 144.421 C 323.381 143.485,323.552 143.134,324.119 138.749 C 324.358 136.894,324.358 93.589,324.118 92.533 C 324.017 92.089,323.842 91.294,323.729 90.767 C 323.477 89.591,322.854 88.715,321.974 88.297 C 321.608 88.123,321.254 87.893,321.187 87.785 C 321.121 87.677,320.776 87.592,320.422 87.597 L 319.778 87.606 320.484 87.872 M159.560 88.103 C 159.477 88.319,159.320 89.523,159.211 90.778 C 159.102 92.033,158.924 93.292,158.816 93.576 C 158.708 93.861,158.567 94.923,158.502 95.936 C 158.437 96.950,158.257 98.228,158.102 98.775 C 157.947 99.323,157.831 100.322,157.844 100.995 C 157.871 102.415,157.877 102.392,158.317 99.193 C 158.500 97.861,158.779 95.863,158.936 94.753 C 159.092 93.643,159.273 92.235,159.336 91.625 C 159.399 91.014,159.549 90.001,159.668 89.374 C 159.896 88.175,159.830 87.399,159.560 88.103 M140.918 89.652 C 140.563 91.563,140.609 92.439,140.991 91.019 C 141.155 90.409,141.263 89.546,141.230 89.102 C 141.175 88.355,141.152 88.396,140.918 89.652 M139.141 92.634 C 139.280 95.827,140.522 97.070,140.597 94.090 C 140.635 92.561,140.578 92.641,140.339 94.450 L 140.219 95.358 139.812 94.349 C 139.589 93.794,139.331 92.841,139.240 92.230 C 139.083 91.174,139.078 91.194,139.141 92.634 M313.349 95.994 C 313.167 98.151,313.225 134.868,313.412 136.226 C 313.497 136.837,313.579 127.687,313.594 115.893 C 313.610 104.099,313.591 94.450,313.551 94.450 C 313.512 94.450,313.421 95.145,313.349 95.994 M120.512 95.964 C 120.505 96.297,120.630 97.114,120.791 97.780 C 120.952 98.446,121.085 99.374,121.087 99.843 C 121.088 100.311,121.220 101.356,121.378 102.164 C 121.663 103.611,121.824 104.695,122.407 109.082 C 122.570 110.303,122.743 111.409,122.793 111.540 C 122.842 111.671,122.982 112.681,123.103 113.783 C 123.413 116.596,123.877 118.746,123.897 117.457 C 123.905 116.958,123.776 116.103,123.610 115.558 C 123.445 115.013,123.308 114.060,123.305 113.439 C 123.302 112.819,123.204 111.948,123.085 111.504 C 122.967 111.060,122.752 109.743,122.608 108.577 C 122.463 107.412,122.246 105.868,122.125 105.146 C 121.795 103.173,121.511 101.243,121.203 98.890 C 121.051 97.725,120.836 96.453,120.726 96.065 L 120.526 95.358 120.512 95.964 M157.548 103.330 C 157.458 103.718,157.349 104.536,157.305 105.146 L 157.225 106.256 157.526 104.945 C 157.691 104.223,157.800 103.406,157.768 103.128 C 157.717 102.688,157.689 102.714,157.548 103.330 M157.050 107.430 C 157.030 108.076,156.917 108.784,156.799 109.004 C 156.681 109.224,156.509 110.331,156.416 111.463 C 156.323 112.595,156.147 113.930,156.025 114.430 C 155.903 114.929,155.719 116.201,155.616 117.255 C 155.513 118.310,155.335 119.581,155.221 120.081 C 155.106 120.580,155.024 121.579,155.038 122.301 C 155.053 123.081,155.090 123.285,155.130 122.805 C 155.167 122.361,155.329 121.181,155.490 120.182 C 155.650 119.183,155.837 117.820,155.904 117.154 C 155.972 116.488,156.158 115.230,156.318 114.357 C 156.478 113.485,156.609 112.378,156.609 111.897 C 156.609 111.417,156.750 110.418,156.922 109.677 C 157.094 108.936,157.201 107.863,157.161 107.293 L 157.088 106.256 157.050 107.430 M123.944 119.475 C 123.931 119.864,124.053 120.727,124.214 121.393 C 124.375 122.059,124.512 123.012,124.518 123.512 C 124.525 124.011,124.620 124.783,124.730 125.227 C 124.840 125.671,125.019 126.806,125.128 127.750 C 125.238 128.693,125.457 130.237,125.616 131.181 C 125.774 132.124,126.012 133.668,126.144 134.612 C 126.276 135.555,126.452 136.736,126.535 137.235 L 126.687 138.143 126.714 137.116 C 126.729 136.551,126.605 135.643,126.440 135.098 C 126.275 134.553,126.135 133.653,126.129 133.098 C 126.123 132.543,126.027 131.680,125.916 131.181 C 125.805 130.681,125.621 129.501,125.508 128.557 C 125.395 127.614,125.177 126.160,125.024 125.328 C 124.870 124.495,124.654 123.088,124.543 122.200 C 124.238 119.758,123.973 118.549,123.944 119.475 M154.642 124.591 C 154.503 125.110,154.398 125.966,154.408 126.491 C 154.424 127.362,154.452 127.304,154.716 125.837 C 155.054 123.967,155.009 123.216,154.642 124.591 M154.133 128.759 C 154.059 129.258,153.901 130.439,153.781 131.382 C 153.662 132.326,153.434 133.915,153.275 134.914 C 153.115 135.913,152.894 137.503,152.783 138.446 C 152.671 139.390,152.493 140.616,152.387 141.171 C 152.281 141.726,152.203 142.725,152.214 143.391 C 152.225 144.057,152.266 144.284,152.305 143.895 C 152.344 143.507,152.514 142.281,152.681 141.171 C 152.849 140.061,153.072 138.426,153.178 137.538 C 153.466 135.107,153.772 132.908,154.121 130.777 C 154.294 129.723,154.397 128.633,154.351 128.355 C 154.288 127.976,154.234 128.076,154.133 128.759 M241.413 132.010 C 241.287 136.139,240.050 139.125,238.177 139.822 C 236.318 140.513,236.045 140.646,236.456 140.656 C 238.199 140.698,240.544 138.622,240.948 136.680 C 241.058 136.153,241.247 135.305,241.370 134.797 C 241.492 134.288,241.561 133.153,241.523 132.274 L 241.454 130.676 241.413 132.010 M126.829 139.354 C 126.922 140.298,127.253 142.642,127.653 145.207 C 128.001 147.431,128.289 149.420,128.647 152.069 C 128.797 153.179,129.019 154.677,129.139 155.399 C 129.259 156.120,129.391 156.983,129.432 157.316 C 129.472 157.649,129.517 157.376,129.531 156.710 C 129.545 156.044,129.460 155.136,129.342 154.692 C 129.224 154.248,129.009 152.931,128.864 151.766 C 128.719 150.600,128.503 149.057,128.383 148.335 C 128.062 146.405,127.752 144.268,127.447 141.877 C 127.170 139.713,126.656 137.615,126.829 139.354 M151.792 145.591 C 151.667 146.089,151.576 147.023,151.592 147.668 C 151.607 148.312,151.652 148.613,151.693 148.335 C 151.734 148.058,151.871 147.170,151.997 146.363 C 152.259 144.698,152.134 144.231,151.792 145.591 M353.202 148.840 C 353.182 149.173,353.032 149.621,352.869 149.837 C 352.706 150.052,352.573 150.390,352.573 150.587 C 352.573 152.345,347.054 158.521,344.788 159.300 C 344.519 159.393,344.299 159.552,344.299 159.654 C 344.299 159.755,344.195 159.839,344.069 159.839 C 343.942 159.839,343.465 160.009,343.009 160.216 C 341.261 161.013,340.682 161.230,339.930 161.371 C 338.936 161.557,337.791 162.040,338.318 162.051 C 338.928 162.063,341.739 161.117,343.290 160.377 C 347.153 158.532,351.920 153.847,352.667 151.160 C 352.744 150.883,352.942 150.358,353.106 149.993 C 353.271 149.629,353.368 149.084,353.322 148.782 C 353.239 148.237,353.239 148.237,353.202 148.840 M151.216 150.252 C 151.079 150.807,150.908 152.079,150.834 153.078 C 150.761 154.077,150.620 155.109,150.523 155.372 C 150.425 155.635,150.261 156.882,150.158 158.144 C 150.047 159.501,149.833 160.729,149.635 161.148 L 149.298 161.857 139.859 161.857 L 130.420 161.857 130.299 161.403 C 130.232 161.153,130.174 160.676,130.171 160.343 C 130.165 159.644,129.600 157.718,129.580 158.325 C 129.565 158.781,130.137 161.637,130.294 161.892 C 130.422 162.098,149.158 162.109,149.465 161.904 C 149.931 161.593,150.127 160.859,150.333 158.659 C 150.449 157.408,150.594 156.306,150.655 156.208 C 150.715 156.110,150.857 155.048,150.970 153.847 C 151.084 152.647,151.272 151.343,151.390 150.950 C 151.507 150.556,151.572 150.011,151.533 149.739 C 151.480 149.365,151.403 149.490,151.216 150.252 M269.337 150.094 C 268.801 151.291,268.179 152.443,267.881 152.791 C 267.731 152.966,267.608 153.216,267.608 153.346 C 267.608 153.476,267.515 153.582,267.400 153.582 C 267.286 153.582,267.132 153.741,267.058 153.935 C 266.746 154.753,263.661 157.261,261.789 158.218 C 261.530 158.350,261.354 158.495,261.399 158.540 C 261.645 158.785,264.274 157.085,265.705 155.756 C 267.379 154.200,270.189 149.840,269.781 149.431 C 269.725 149.375,269.525 149.673,269.337 150.094 M313.012 154.036 C 312.889 154.508,312.658 155.303,312.498 155.802 C 312.339 156.302,312.215 156.983,312.224 157.316 C 312.233 157.659,312.476 157.004,312.785 155.802 C 313.447 153.227,313.445 153.228,315.586 155.368 C 316.922 156.703,317.985 157.573,320.012 158.988 C 321.505 160.031,324.110 161.153,325.732 161.453 C 326.231 161.545,326.895 161.719,327.208 161.839 C 327.520 161.960,327.974 162.051,328.217 162.041 C 328.789 162.019,327.955 161.728,326.236 161.352 C 324.761 161.029,323.849 160.722,322.866 160.220 C 322.456 160.010,321.979 159.839,321.807 159.839 C 321.634 159.839,321.493 159.754,321.493 159.650 C 321.493 159.547,321.316 159.406,321.099 159.337 C 320.011 158.992,316.362 156.035,314.752 154.194 C 314.348 153.732,313.573 153.179,313.331 153.179 C 313.278 153.179,313.135 153.565,313.012 154.036 M311.849 158.513 C 311.715 158.809,311.611 159.250,311.619 159.495 C 311.629 159.808,311.719 159.705,311.925 159.142 C 312.266 158.211,312.207 157.727,311.849 158.513 M260.343 158.930 C 260.205 159.097,259.896 159.233,259.657 159.233 C 259.418 159.233,259.043 159.358,258.824 159.511 C 258.605 159.663,258.017 159.855,257.518 159.938 C 257.018 160.021,256.364 160.214,256.065 160.367 C 255.765 160.520,255.129 160.646,254.652 160.647 C 254.175 160.648,253.239 160.748,252.573 160.871 C 251.907 160.994,250.318 161.160,249.041 161.240 L 246.720 161.387 248.711 161.420 C 251.997 161.475,256.173 160.747,259.515 159.536 C 260.606 159.141,261.398 158.628,260.917 158.628 C 260.740 158.628,260.481 158.764,260.343 158.930 M330.272 162.268 C 331.847 162.463,335.219 162.464,336.630 162.269 C 337.350 162.169,336.215 162.116,333.401 162.117 C 330.545 162.117,329.476 162.169,330.272 162.268 " stroke="none" fill="#745c04" fill-rule="evenodd"></path></g></svg>